<svg id="SvgjsSvg2531" width="1574.957275390625" height="704.9942966037327" xmlns="http://www.w3.org/2000/svg" version="1.1" xmlns:xlink="http://www.w3.org/1999/xlink" xmlns:svgjs="http://svgjs.com/svgjs"><defs id="SvgjsDefs2532"><pattern patternUnits="userSpaceOnUse" id="pattern_mark_0" width="300" height="300"><text x="150" y="100" fill="rgba(229,229,229,0.8)" font-size="18" transform="rotate(-45, 150, 150)" style="dominant-baseline: middle; text-anchor: middle;"></text></pattern><pattern patternUnits="userSpaceOnUse" id="pattern_mark_1" width="300" height="300"><text x="150" y="200" fill="rgba(229,229,229,0.8)" font-size="18" transform="rotate(-45, 150, 150)" style="dominant-baseline: middle; text-anchor: middle;"></text></pattern><marker id="SvgjsMarker2556" markerWidth="13" markerHeight="9" refX="3.5" refY="4.5" viewBox="0 0 13 9" orient="auto" markerUnits="userSpaceOnUse" stroke-dasharray="0,0"><path id="SvgjsPath2557" d="M13,0 L0,4.5 L13,9 L13,0" fill="#323232" stroke="#323232" stroke-width="1"></path></marker><marker id="SvgjsMarker2558" markerWidth="13" markerHeight="9" refX="9.5" refY="4.5" viewBox="0 0 13 9" orient="auto" markerUnits="userSpaceOnUse" stroke-dasharray="0,0"><path id="SvgjsPath2559" d="M0,0 L13,4.5 L0,9 L0,0" fill="#323232" stroke="#323232" stroke-width="1"></path></marker><marker id="SvgjsMarker2562" markerWidth="13" markerHeight="9" refX="3.5" refY="4.5" viewBox="0 0 13 9" orient="auto" markerUnits="userSpaceOnUse" stroke-dasharray="0,0"><path id="SvgjsPath2563" d="M13,0 L0,4.5 L13,9 L13,0" fill="#323232" stroke="#323232" stroke-width="1"></path></marker><marker id="SvgjsMarker2564" markerWidth="13" markerHeight="9" refX="9.5" refY="4.5" viewBox="0 0 13 9" orient="auto" markerUnits="userSpaceOnUse" stroke-dasharray="0,0"><path id="SvgjsPath2565" d="M0,0 L13,4.5 L0,9 L0,0" fill="#323232" stroke="#323232" stroke-width="1"></path></marker><marker id="SvgjsMarker2568" markerWidth="13" markerHeight="9" refX="3.5" refY="4.5" viewBox="0 0 13 9" orient="auto" markerUnits="userSpaceOnUse" stroke-dasharray="0,0"><path id="SvgjsPath2569" d="M13,0 L0,4.5 L13,9 L13,0" fill="#323232" stroke="#323232" stroke-width="1"></path></marker><marker id="SvgjsMarker2570" markerWidth="13" markerHeight="9" refX="9.5" refY="4.5" viewBox="0 0 13 9" orient="auto" markerUnits="userSpaceOnUse" stroke-dasharray="0,0"><path id="SvgjsPath2571" d="M0,0 L13,4.5 L0,9 L0,0" fill="#323232" stroke="#323232" stroke-width="1"></path></marker><marker id="SvgjsMarker2598" markerWidth="13" markerHeight="9" refX="3.5" refY="4.5" viewBox="0 0 13 9" orient="auto" markerUnits="userSpaceOnUse" stroke-dasharray="0,0"><path id="SvgjsPath2599" d="M13,0 L0,4.5 L13,9 L13,0" fill="#ed77b6" stroke="#ed77b6" stroke-width="1"></path></marker><marker id="SvgjsMarker2600" markerWidth="13" markerHeight="9" refX="9.5" refY="4.5" viewBox="0 0 13 9" orient="auto" markerUnits="userSpaceOnUse" stroke-dasharray="0,0"><path id="SvgjsPath2601" d="M0,0 L13,4.5 L0,9 L0,0" fill="#ed77b6" stroke="#ed77b6" stroke-width="1"></path></marker><marker id="SvgjsMarker2622" markerWidth="13" markerHeight="9" refX="3.5" refY="4.5" viewBox="0 0 13 9" orient="0" markerUnits="userSpaceOnUse" stroke-dasharray="0,0"><path id="SvgjsPath2623" d="M13,0 L0,4.5 L13,9 L13,0" fill="#e9d66f" stroke="#e9d66f" stroke-width="1"></path></marker><marker id="SvgjsMarker2624" markerWidth="13" markerHeight="9" refX="9.5" refY="4.5" viewBox="0 0 13 9" orient="auto" markerUnits="userSpaceOnUse" stroke-dasharray="0,0"><path id="SvgjsPath2625" d="M0,0 L13,4.5 L0,9 L0,0" fill="#e9d66f" stroke="#e9d66f" stroke-width="1"></path></marker><marker id="SvgjsMarker2652" markerWidth="13" markerHeight="9" refX="3.5" refY="4.5" viewBox="0 0 13 9" orient="auto" markerUnits="userSpaceOnUse" stroke-dasharray="0,0"><path id="SvgjsPath2653" d="M13,0 L0,4.5 L13,9 L13,0" fill="#e855a4" stroke="#e855a4" stroke-width="1"></path></marker><marker id="SvgjsMarker2654" markerWidth="13" markerHeight="9" refX="9.5" refY="4.5" viewBox="0 0 13 9" orient="auto" markerUnits="userSpaceOnUse" stroke-dasharray="0,0"><path id="SvgjsPath2655" d="M0,0 L13,4.5 L0,9 L0,0" fill="#e855a4" stroke="#e855a4" stroke-width="1"></path></marker><marker id="SvgjsMarker2662" markerWidth="13" markerHeight="9" refX="3.5" refY="4.5" viewBox="0 0 13 9" orient="auto" markerUnits="userSpaceOnUse" stroke-dasharray="0,0"><path id="SvgjsPath2663" d="M13,0 L0,4.5 L13,9 L13,0" fill="#f199c8" stroke="#f199c8" stroke-width="1"></path></marker><marker id="SvgjsMarker2664" markerWidth="13" markerHeight="9" refX="9.5" refY="4.5" viewBox="0 0 13 9" orient="auto" markerUnits="userSpaceOnUse" stroke-dasharray="0,0"><path id="SvgjsPath2665" d="M0,0 L13,4.5 L0,9 L0,0" fill="#f199c8" stroke="#f199c8" stroke-width="1"></path></marker><marker id="SvgjsMarker2672" markerWidth="13" markerHeight="9" refX="3.5" refY="4.5" viewBox="0 0 13 9" orient="auto" markerUnits="userSpaceOnUse" stroke-dasharray="0,0"><path id="SvgjsPath2673" d="M13,0 L0,4.5 L13,9 L13,0" fill="#323232" stroke="#323232" stroke-width="1"></path></marker><marker id="SvgjsMarker2674" markerWidth="13" markerHeight="9" refX="9.5" refY="4.5" viewBox="0 0 13 9" orient="auto" markerUnits="userSpaceOnUse" stroke-dasharray="0,0"><path id="SvgjsPath2675" d="M0,0 L13,4.5 L0,9 L0,0" fill="#323232" stroke="#323232" stroke-width="1"></path></marker><marker id="SvgjsMarker2678" markerWidth="13" markerHeight="9" refX="3.5" refY="4.5" viewBox="0 0 13 9" orient="auto" markerUnits="userSpaceOnUse" stroke-dasharray="0,0"><path id="SvgjsPath2679" d="M13,0 L0,4.5 L13,9 L13,0" fill="#323232" stroke="#323232" stroke-width="1"></path></marker><marker id="SvgjsMarker2680" markerWidth="13" markerHeight="9" refX="9.5" refY="4.5" viewBox="0 0 13 9" orient="auto" markerUnits="userSpaceOnUse" stroke-dasharray="0,0"><path id="SvgjsPath2681" d="M0,0 L13,4.5 L0,9 L0,0" fill="#323232" stroke="#323232" stroke-width="1"></path></marker><marker id="SvgjsMarker2684" markerWidth="13" markerHeight="9" refX="3.5" refY="4.5" viewBox="0 0 13 9" orient="auto" markerUnits="userSpaceOnUse" stroke-dasharray="0,0"><path id="SvgjsPath2685" d="M13,0 L0,4.5 L13,9 L13,0" fill="#323232" stroke="#323232" stroke-width="1"></path></marker><marker id="SvgjsMarker2686" markerWidth="13" markerHeight="9" refX="9.5" refY="4.5" viewBox="0 0 13 9" orient="auto" markerUnits="userSpaceOnUse" stroke-dasharray="0,0"><path id="SvgjsPath2687" d="M0,0 L13,4.5 L0,9 L0,0" fill="#323232" stroke="#323232" stroke-width="1"></path></marker><marker id="SvgjsMarker2690" markerWidth="13" markerHeight="9" refX="3.5" refY="4.5" viewBox="0 0 13 9" orient="auto" markerUnits="userSpaceOnUse" stroke-dasharray="0,0"><path id="SvgjsPath2691" d="M13,0 L0,4.5 L13,9 L13,0" fill="#323232" stroke="#323232" stroke-width="1"></path></marker><marker id="SvgjsMarker2692" markerWidth="13" markerHeight="9" refX="9.5" refY="4.5" viewBox="0 0 13 9" orient="auto" markerUnits="userSpaceOnUse" stroke-dasharray="0,0"><path id="SvgjsPath2693" d="M0,0 L13,4.5 L0,9 L0,0" fill="#323232" stroke="#323232" stroke-width="1"></path></marker><marker id="SvgjsMarker2696" markerWidth="13" markerHeight="9" refX="3.5" refY="4.5" viewBox="0 0 13 9" orient="0" markerUnits="userSpaceOnUse" stroke-dasharray="0,0"><path id="SvgjsPath2697" d="M13,0 L0,4.5 L13,9 L13,0" fill="#323232" stroke="#323232" stroke-width="1"></path></marker><marker id="SvgjsMarker2698" markerWidth="13" markerHeight="9" refX="9.5" refY="4.5" viewBox="0 0 13 9" orient="auto" markerUnits="userSpaceOnUse" stroke-dasharray="0,0"><path id="SvgjsPath2699" d="M0,0 L13,4.5 L0,9 L0,0" fill="#323232" stroke="#323232" stroke-width="1"></path></marker><marker id="SvgjsMarker2702" markerWidth="13" markerHeight="9" refX="3.5" refY="4.5" viewBox="0 0 13 9" orient="auto" markerUnits="userSpaceOnUse" stroke-dasharray="0,0"><path id="SvgjsPath2703" d="M13,0 L0,4.5 L13,9 L13,0" fill="#323232" stroke="#323232" stroke-width="1"></path></marker><marker id="SvgjsMarker2704" markerWidth="13" markerHeight="9" refX="9.5" refY="4.5" viewBox="0 0 13 9" orient="auto" markerUnits="userSpaceOnUse" stroke-dasharray="0,0"><path id="SvgjsPath2705" d="M0,0 L13,4.5 L0,9 L0,0" fill="#323232" stroke="#323232" stroke-width="1"></path></marker><marker id="SvgjsMarker2708" markerWidth="13" markerHeight="9" refX="3.5" refY="4.5" viewBox="0 0 13 9" orient="0" markerUnits="userSpaceOnUse" stroke-dasharray="0,0"><path id="SvgjsPath2709" d="M13,0 L0,4.5 L13,9 L13,0" fill="#323232" stroke="#323232" stroke-width="1"></path></marker><marker id="SvgjsMarker2710" markerWidth="13" markerHeight="9" refX="9.5" refY="4.5" viewBox="0 0 13 9" orient="auto" markerUnits="userSpaceOnUse" stroke-dasharray="0,0"><path id="SvgjsPath2711" d="M0,0 L13,4.5 L0,9 L0,0" fill="#323232" stroke="#323232" stroke-width="1"></path></marker><marker id="SvgjsMarker2714" markerWidth="13" markerHeight="9" refX="3.5" refY="4.5" viewBox="0 0 13 9" orient="auto" markerUnits="userSpaceOnUse" stroke-dasharray="0,0"><path id="SvgjsPath2715" d="M13,0 L0,4.5 L13,9 L13,0" fill="#323232" stroke="#323232" stroke-width="1"></path></marker><marker id="SvgjsMarker2716" markerWidth="13" markerHeight="9" refX="9.5" refY="4.5" viewBox="0 0 13 9" orient="auto" markerUnits="userSpaceOnUse" stroke-dasharray="0,0"><path id="SvgjsPath2717" d="M0,0 L13,4.5 L0,9 L0,0" fill="#323232" stroke="#323232" stroke-width="1"></path></marker><marker id="SvgjsMarker2720" markerWidth="13" markerHeight="9" refX="3.5" refY="4.5" viewBox="0 0 13 9" orient="0" markerUnits="userSpaceOnUse" stroke-dasharray="0,0"><path id="SvgjsPath2721" d="M13,0 L0,4.5 L13,9 L13,0" fill="#323232" stroke="#323232" stroke-width="1"></path></marker><marker id="SvgjsMarker2722" markerWidth="13" markerHeight="9" refX="9.5" refY="4.5" viewBox="0 0 13 9" orient="auto" markerUnits="userSpaceOnUse" stroke-dasharray="0,0"><path id="SvgjsPath2723" d="M0,0 L13,4.5 L0,9 L0,0" fill="#323232" stroke="#323232" stroke-width="1"></path></marker><marker id="SvgjsMarker2726" markerWidth="13" markerHeight="9" refX="3.5" refY="4.5" viewBox="0 0 13 9" orient="0" markerUnits="userSpaceOnUse" stroke-dasharray="0,0"><path id="SvgjsPath2727" d="M13,0 L0,4.5 L13,9 L13,0" fill="#323232" stroke="#323232" stroke-width="1"></path></marker><marker id="SvgjsMarker2728" markerWidth="13" markerHeight="9" refX="9.5" refY="4.5" viewBox="0 0 13 9" orient="auto" markerUnits="userSpaceOnUse" stroke-dasharray="0,0"><path id="SvgjsPath2729" d="M0,0 L13,4.5 L0,9 L0,0" fill="#323232" stroke="#323232" stroke-width="1"></path></marker><marker id="SvgjsMarker2738" markerWidth="13" markerHeight="9" refX="3.5" refY="4.5" viewBox="0 0 13 9" orient="0" markerUnits="userSpaceOnUse" stroke-dasharray="0,0"><path id="SvgjsPath2739" d="M13,0 L0,4.5 L13,9 L13,0" fill="#323232" stroke="#323232" stroke-width="1"></path></marker><marker id="SvgjsMarker2740" markerWidth="13" markerHeight="9" refX="9.5" refY="4.5" viewBox="0 0 13 9" orient="auto" markerUnits="userSpaceOnUse" stroke-dasharray="0,0"><path id="SvgjsPath2741" d="M0,0 L13,4.5 L0,9 L0,0" fill="#323232" stroke="#323232" stroke-width="1"></path></marker><marker id="SvgjsMarker2744" markerWidth="13" markerHeight="9" refX="3.5" refY="4.5" viewBox="0 0 13 9" orient="auto" markerUnits="userSpaceOnUse" stroke-dasharray="0,0"><path id="SvgjsPath2745" d="M13,0 L0,4.5 L13,9 L13,0" fill="#323232" stroke="#323232" stroke-width="1"></path></marker><marker id="SvgjsMarker2746" markerWidth="13" markerHeight="9" refX="9.5" refY="4.5" viewBox="0 0 13 9" orient="auto" markerUnits="userSpaceOnUse" stroke-dasharray="0,0"><path id="SvgjsPath2747" d="M0,0 L13,4.5 L0,9 L0,0" fill="#323232" stroke="#323232" stroke-width="1"></path></marker><marker id="SvgjsMarker2756" markerWidth="13" markerHeight="9" refX="3.5" refY="4.5" viewBox="0 0 13 9" orient="auto" markerUnits="userSpaceOnUse" stroke-dasharray="0,0"><path id="SvgjsPath2757" d="M13,0 L0,4.5 L13,9 L13,0" fill="#323232" stroke="#323232" stroke-width="1"></path></marker><marker id="SvgjsMarker2758" markerWidth="13" markerHeight="9" refX="9.5" refY="4.5" viewBox="0 0 13 9" orient="auto" markerUnits="userSpaceOnUse" stroke-dasharray="0,0"><path id="SvgjsPath2759" d="M0,0 L13,4.5 L0,9 L0,0" fill="#323232" stroke="#323232" stroke-width="1"></path></marker><marker id="SvgjsMarker2768" markerWidth="13" markerHeight="9" refX="3.5" refY="4.5" viewBox="0 0 13 9" orient="auto" markerUnits="userSpaceOnUse" stroke-dasharray="0,0"><path id="SvgjsPath2769" d="M13,0 L0,4.5 L13,9 L13,0" fill="#323232" stroke="#323232" stroke-width="1"></path></marker><marker id="SvgjsMarker2770" markerWidth="13" markerHeight="9" refX="9.5" refY="4.5" viewBox="0 0 13 9" orient="auto" markerUnits="userSpaceOnUse" stroke-dasharray="0,0"><path id="SvgjsPath2771" d="M0,0 L13,4.5 L0,9 L0,0" fill="#323232" stroke="#323232" stroke-width="1"></path></marker><marker id="SvgjsMarker2780" markerWidth="13" markerHeight="9" refX="3.5" refY="4.5" viewBox="0 0 13 9" orient="0" markerUnits="userSpaceOnUse" stroke-dasharray="0,0"><path id="SvgjsPath2781" d="M13,0 L0,4.5 L13,9 L13,0" fill="#323232" stroke="#323232" stroke-width="1"></path></marker><marker id="SvgjsMarker2782" markerWidth="13" markerHeight="9" refX="9.5" refY="4.5" viewBox="0 0 13 9" orient="auto" markerUnits="userSpaceOnUse" stroke-dasharray="0,0"><path id="SvgjsPath2783" d="M0,0 L13,4.5 L0,9 L0,0" fill="#323232" stroke="#323232" stroke-width="1"></path></marker><marker id="SvgjsMarker2786" markerWidth="13" markerHeight="9" refX="3.5" refY="4.5" viewBox="0 0 13 9" orient="0" markerUnits="userSpaceOnUse" stroke-dasharray="0,0"><path id="SvgjsPath2787" d="M13,0 L0,4.5 L13,9 L13,0" fill="#323232" stroke="#323232" stroke-width="1"></path></marker><marker id="SvgjsMarker2788" markerWidth="13" markerHeight="9" refX="9.5" refY="4.5" viewBox="0 0 13 9" orient="auto" markerUnits="userSpaceOnUse" stroke-dasharray="0,0"><path id="SvgjsPath2789" d="M0,0 L13,4.5 L0,9 L0,0" fill="#323232" stroke="#323232" stroke-width="1"></path></marker><marker id="SvgjsMarker2792" markerWidth="13" markerHeight="9" refX="3.5" refY="4.5" viewBox="0 0 13 9" orient="auto" markerUnits="userSpaceOnUse" stroke-dasharray="0,0"><path id="SvgjsPath2793" d="M13,0 L0,4.5 L13,9 L13,0" fill="#323232" stroke="#323232" stroke-width="1"></path></marker><marker id="SvgjsMarker2794" markerWidth="13" markerHeight="9" refX="9.5" refY="4.5" viewBox="0 0 13 9" orient="auto" markerUnits="userSpaceOnUse" stroke-dasharray="0,0"><path id="SvgjsPath2795" d="M0,0 L13,4.5 L0,9 L0,0" fill="#323232" stroke="#323232" stroke-width="1"></path></marker><marker id="SvgjsMarker2798" markerWidth="13" markerHeight="9" refX="3.5" refY="4.5" viewBox="0 0 13 9" orient="0" markerUnits="userSpaceOnUse" stroke-dasharray="0,0"><path id="SvgjsPath2799" d="M13,0 L0,4.5 L13,9 L13,0" fill="#323232" stroke="#323232" stroke-width="1"></path></marker><marker id="SvgjsMarker2800" markerWidth="13" markerHeight="9" refX="9.5" refY="4.5" viewBox="0 0 13 9" orient="auto" markerUnits="userSpaceOnUse" stroke-dasharray="0,0"><path id="SvgjsPath2801" d="M0,0 L13,4.5 L0,9 L0,0" fill="#323232" stroke="#323232" stroke-width="1"></path></marker><marker id="SvgjsMarker2808" markerWidth="13" markerHeight="9" refX="3.5" refY="4.5" viewBox="0 0 13 9" orient="auto" markerUnits="userSpaceOnUse" stroke-dasharray="0,0"><path id="SvgjsPath2809" d="M13,0 L0,4.5 L13,9 L13,0" fill="#323232" stroke="#323232" stroke-width="1"></path></marker><marker id="SvgjsMarker2810" markerWidth="13" markerHeight="9" refX="9.5" refY="4.5" viewBox="0 0 13 9" orient="auto" markerUnits="userSpaceOnUse" stroke-dasharray="0,0"><path id="SvgjsPath2811" d="M0,0 L13,4.5 L0,9 L0,0" fill="#323232" stroke="#323232" stroke-width="1"></path></marker><marker id="SvgjsMarker2820" markerWidth="13" markerHeight="9" refX="3.5" refY="4.5" viewBox="0 0 13 9" orient="auto" markerUnits="userSpaceOnUse" stroke-dasharray="0,0"><path id="SvgjsPath2821" d="M13,0 L0,4.5 L13,9 L13,0" fill="#323232" stroke="#323232" stroke-width="1"></path></marker><marker id="SvgjsMarker2822" markerWidth="13" markerHeight="9" refX="9.5" refY="4.5" viewBox="0 0 13 9" orient="auto" markerUnits="userSpaceOnUse" stroke-dasharray="0,0"><path id="SvgjsPath2823" d="M0,0 L13,4.5 L0,9 L0,0" fill="#323232" stroke="#323232" stroke-width="1"></path></marker><marker id="SvgjsMarker2826" markerWidth="13" markerHeight="9" refX="3.5" refY="4.5" viewBox="0 0 13 9" orient="auto" markerUnits="userSpaceOnUse" stroke-dasharray="0,0"><path id="SvgjsPath2827" d="M13,0 L0,4.5 L13,9 L13,0" fill="#323232" stroke="#323232" stroke-width="1"></path></marker><marker id="SvgjsMarker2828" markerWidth="13" markerHeight="9" refX="9.5" refY="4.5" viewBox="0 0 13 9" orient="auto" markerUnits="userSpaceOnUse" stroke-dasharray="0,0"><path id="SvgjsPath2829" d="M0,0 L13,4.5 L0,9 L0,0" fill="#323232" stroke="#323232" stroke-width="1"></path></marker></defs><rect id="svgbackgroundid" width="1574.957275390625" height="704.9942966037327" fill="transparent"></rect><rect id="SvgjsRect2534" width="1574.957275390625" height="704.9942966037327" fill="url(#pattern_mark_0)"></rect><rect id="SvgjsRect2535" width="1574.957275390625" height="704.9942966037327" fill="url(#pattern_mark_1)"></rect><g id="SvgjsG2536" transform="translate(447.5084957546658,25.002849155002167)"><path id="SvgjsPath2537" d="M 0 4Q 0 0 4 0L 92 0Q 96 0 96 4L 96 50Q 96 54 92 54L 4 54Q 0 54 0 50Z" stroke="rgba(33,41,48,1)" stroke-width="1.5" fill="none"></path><g id="SvgjsG2538"><text id="SvgjsText2539" font-family="微软雅黑" text-anchor="middle" font-size="15px" width="76px" fill="#323232" font-weight="700" align="middle" lineHeight="125%" anchor="middle" family="微软雅黑" size="15px" weight="700" font-style="" opacity="1" y="14.625" transform="rotate(0)"><tspan id="SvgjsTspan2540" dy="18.75" x="48"><tspan id="SvgjsTspan2541" style="">broker</tspan></tspan></text></g></g><g id="SvgjsG2542" transform="translate(343.5084957546658,116.00284915500217)"><path id="SvgjsPath2543" d="M 0 4Q 0 0 4 0L 92 0Q 96 0 96 4L 96 50Q 96 54 92 54L 4 54Q 0 54 0 50Z" stroke="rgba(33,41,48,1)" stroke-width="1.5" fill="none"></path><g id="SvgjsG2544"><text id="SvgjsText2545" font-family="微软雅黑" text-anchor="middle" font-size="15px" width="76px" fill="#323232" font-weight="700" align="middle" lineHeight="125%" anchor="middle" family="微软雅黑" size="15px" weight="700" font-style="" opacity="1" y="14.625" transform="rotate(0)"><tspan id="SvgjsTspan2546" dy="18.75" x="48"><tspan id="SvgjsTspan2547" style="">broker</tspan></tspan></text></g></g><g id="SvgjsG2548" transform="translate(553.5084957546658,116.00284915500217)"><path id="SvgjsPath2549" d="M 0 4Q 0 0 4 0L 92 0Q 96 0 96 4L 96 50Q 96 54 92 54L 4 54Q 0 54 0 50Z" stroke="rgba(33,41,48,1)" stroke-width="1.5" fill="none"></path><g id="SvgjsG2550"><text id="SvgjsText2551" font-family="微软雅黑" text-anchor="middle" font-size="15px" width="76px" fill="#323232" font-weight="700" align="middle" lineHeight="125%" anchor="middle" family="微软雅黑" size="15px" weight="700" font-style="" opacity="1" y="14.625" transform="rotate(0)"><tspan id="SvgjsTspan2552" dy="18.75" x="48"><tspan id="SvgjsTspan2553" style="">broker</tspan></tspan></text></g></g><g id="SvgjsG2554"><path id="SvgjsPath2555" d="M495.2631678341869 81.69168053897431C 495.5084957546658 113.01931575575307 473.5249623554166 143.0028491550021 442.18736784279815 142.6657373999039" stroke="#323232" stroke-width="1.5" fill="none" marker-start="url(#SvgjsMarker2556)" marker-end="url(#SvgjsMarker2558)"></path></g><g id="SvgjsG2560"><path id="SvgjsPath2561" d="M495.7621688077618 81.69090607071897C 495.5084957546658 113.55136576570484 518.959979143963 143.00284915500217 550.8275732286216 142.68245188699095" stroke="#323232" stroke-width="1.5" fill="none" marker-start="url(#SvgjsMarker2562)" marker-end="url(#SvgjsMarker2564)"></path></g><g id="SvgjsG2566"><path id="SvgjsPath2567" d="M550.8084957546657 143.00284915500217C 507.90849575466586 143.00284915500217 485.1084957546657 143.0028491550021 442.2084957546658 143.00284915500217" stroke="#323232" stroke-width="1.5" fill="none" marker-start="url(#SvgjsMarker2568)" marker-end="url(#SvgjsMarker2570)"></path></g><g id="SvgjsG2572" transform="translate(25.0084957546658,121.00284915500217)"><path id="SvgjsPath2573" d="M 0 0L 96 0L 96 54L 0 54Z" stroke="rgba(33,41,48,1)" stroke-width="1.5" fill="none"></path><g id="SvgjsG2574"><text id="SvgjsText2575" font-family="微软雅黑" text-anchor="middle" font-size="15px" width="76px" fill="#323232" font-weight="700" align="middle" lineHeight="125%" anchor="middle" family="微软雅黑" size="15px" weight="700" font-style="" opacity="1" y="14.625" transform="rotate(0)"><tspan id="SvgjsTspan2576" dy="18.75" x="48"><tspan id="SvgjsTspan2577" style="">login</tspan></tspan></text></g></g><g id="SvgjsG2578" transform="translate(172.0084957546658,116.00284915500217)"><path id="SvgjsPath2579" d="M 0 0L 96 0L 96 54L 0 54Z" stroke="rgba(33,41,48,1)" stroke-width="1.5" fill="none"></path><g id="SvgjsG2580"><text id="SvgjsText2581" font-family="微软雅黑" text-anchor="middle" font-size="15px" width="76px" fill="#323232" font-weight="700" align="middle" lineHeight="125%" anchor="middle" family="微软雅黑" size="15px" weight="700" font-style="" opacity="1" y="14.625" transform="rotate(0)"><tspan id="SvgjsTspan2582" dy="18.75" x="48"><tspan id="SvgjsTspan2583" style="">payment</tspan></tspan></text></g></g><g id="SvgjsG2584" transform="translate(98.5084957546658,436.0028491550022)"><path id="SvgjsPath2585" d="M 0 4Q 0 0 4 0L 92 0Q 96 0 96 4L 96 50Q 96 54 92 54L 4 54Q 0 54 0 50Z" stroke="rgba(33,41,48,1)" stroke-width="1.5" fill="none"></path><g id="SvgjsG2586"><text id="SvgjsText2587" font-family="微软雅黑" text-anchor="middle" font-size="15px" width="76px" fill="#323232" font-weight="700" align="middle" lineHeight="125%" anchor="middle" family="微软雅黑" size="15px" weight="700" font-style="" opacity="1" y="14.625" transform="rotate(0)"><tspan id="SvgjsTspan2588" dy="18.75" x="48"><tspan id="SvgjsTspan2589" style="">nginx</tspan></tspan></text></g></g><g id="SvgjsG2590" transform="translate(327.5084957546658,564.0028491550022)"><path id="SvgjsPath2591" d="M 0 0L 100 0L 100 70L 0 70Z" stroke="rgba(33,41,48,1)" stroke-width="1.5" fill="none"></path><g id="SvgjsG2592"><text id="SvgjsText2593" font-family="微软雅黑" text-anchor="middle" font-size="15px" width="80px" fill="#323232" font-weight="700" align="middle" lineHeight="125%" anchor="middle" family="微软雅黑" size="15px" weight="700" font-style="" opacity="1" y="22.625" transform="rotate(0)"><tspan id="SvgjsTspan2594" dy="18.75" x="50"><tspan id="SvgjsTspan2595" style="">client</tspan></tspan></text></g></g><g id="SvgjsG2596"><path id="SvgjsPath2597" d="M324.80849575466584 599.0028491550022L146.5084957546658 599.0028491550022L146.5084957546658 492.70284915500224" stroke="#ed77b6" stroke-width="1.5" fill="none" marker-start="url(#SvgjsMarker2598)" marker-end="url(#SvgjsMarker2600)"></path></g><g id="SvgjsG2602" transform="translate(447.5084957546658,344.0028491550022)"><path id="SvgjsPath2603" d="M 0 4Q 0 0 4 0L 92 0Q 96 0 96 4L 96 51Q 96 55 92 55L 4 55Q 0 55 0 51Z" stroke="rgba(33,41,48,1)" stroke-width="1.5" fill="none"></path><g id="SvgjsG2604"><text id="SvgjsText2605" font-family="微软雅黑" text-anchor="middle" font-size="15px" width="76px" fill="#323232" font-weight="700" align="middle" lineHeight="125%" anchor="middle" family="微软雅黑" size="15px" weight="700" font-style="" opacity="1" y="15.125" transform="rotate(0)"><tspan id="SvgjsTspan2606" dy="18.75" x="48"><tspan id="SvgjsTspan2607" style="">gateway</tspan></tspan></text></g></g><g id="SvgjsG2608" transform="translate(343.5084957546658,436.0028491550022)"><path id="SvgjsPath2609" d="M 0 4Q 0 0 4 0L 92 0Q 96 0 96 4L 96 50Q 96 54 92 54L 4 54Q 0 54 0 50Z" stroke="rgba(33,41,48,1)" stroke-width="1.5" fill="none"></path><g id="SvgjsG2610"><text id="SvgjsText2611" font-family="微软雅黑" text-anchor="middle" font-size="15px" width="76px" fill="#323232" font-weight="700" align="middle" lineHeight="125%" anchor="middle" family="微软雅黑" size="15px" weight="700" font-style="" opacity="1" y="14.625" transform="rotate(0)"><tspan id="SvgjsTspan2612" dy="18.75" x="48"><tspan id="SvgjsTspan2613" style="">gateway</tspan></tspan></text></g></g><g id="SvgjsG2614" transform="translate(553.5084957546658,436.0028491550022)"><path id="SvgjsPath2615" d="M 0 4Q 0 0 4 0L 92 0Q 96 0 96 4L 96 50Q 96 54 92 54L 4 54Q 0 54 0 50Z" stroke="rgba(33,41,48,1)" stroke-width="1.5" fill="none"></path><g id="SvgjsG2616"><text id="SvgjsText2617" font-family="微软雅黑" text-anchor="middle" font-size="15px" width="76px" fill="#323232" font-weight="700" align="middle" lineHeight="125%" anchor="middle" family="微软雅黑" size="15px" weight="700" font-style="" opacity="1" y="14.625" transform="rotate(0)"><tspan id="SvgjsTspan2618" dy="18.75" x="48"><tspan id="SvgjsTspan2619" style="">gateway</tspan></tspan></text></g></g><g id="SvgjsG2620"><path id="SvgjsPath2621" d="M430.2084957546658 599.0028491550022L601.5084957546658 599.0028491550022L601.5084957546658 492.70284915500224" stroke="#e9d66f" stroke-width="1.5" fill="none" marker-start="url(#SvgjsMarker2622)" marker-end="url(#SvgjsMarker2624)"></path></g><g id="SvgjsG2626" transform="translate(758.5084957546658,116.00284915500217)"><path id="SvgjsPath2627" d="M 0 0L 96 0L 96 54L 0 54Z" stroke="rgba(33,41,48,1)" stroke-width="1.5" fill="none"></path><g id="SvgjsG2628"><text id="SvgjsText2629" font-family="微软雅黑" text-anchor="middle" font-size="15px" width="76px" fill="#323232" font-weight="700" align="middle" lineHeight="125%" anchor="middle" family="微软雅黑" size="15px" weight="700" font-style="" opacity="1" y="14.625" transform="rotate(0)"><tspan id="SvgjsTspan2630" dy="18.75" x="48"><tspan id="SvgjsTspan2631" style="">game</tspan></tspan></text></g></g><g id="SvgjsG2632" transform="translate(918.5084957546658,175.00284915500217)"><path id="SvgjsPath2633" d="M 0 0L 96 0L 96 54L 0 54Z" stroke="rgba(33,41,48,1)" stroke-width="1.5" fill="none"></path><g id="SvgjsG2634"><text id="SvgjsText2635" font-family="微软雅黑" text-anchor="middle" font-size="15px" width="76px" fill="#323232" font-weight="700" align="middle" lineHeight="125%" anchor="middle" family="微软雅黑" size="15px" weight="700" font-style="" opacity="1" y="14.625" transform="rotate(0)"><tspan id="SvgjsTspan2636" dy="18.75" x="48"><tspan id="SvgjsTspan2637" style="">cross</tspan></tspan></text></g></g><g id="SvgjsG2638" transform="translate(1276.2671739674688,181.00284915500217)"><path id="SvgjsPath2639" d="M 0 4Q 0 0 4 0L 92 0Q 96 0 96 4L 96 50Q 96 54 92 54L 4 54Q 0 54 0 50Z" stroke="rgba(33,41,48,1)" stroke-width="1.5" fill="none"></path><g id="SvgjsG2640"><text id="SvgjsText2641" font-family="微软雅黑" text-anchor="middle" font-size="15px" width="76px" fill="#323232" font-weight="700" align="middle" lineHeight="125%" anchor="middle" family="微软雅黑" size="15px" weight="700" font-style="" opacity="1" y="14.625" transform="rotate(0)"><tspan id="SvgjsTspan2642" dy="18.75" x="48"><tspan id="SvgjsTspan2643" style="">gateway</tspan></tspan></text></g></g><g id="SvgjsG2644" transform="translate(1276.2671739674688,626.0028491550022)"><path id="SvgjsPath2645" d="M 0 0L 96 0L 96 54L 0 54Z" stroke="rgba(33,41,48,1)" stroke-width="1.5" fill="none"></path><g id="SvgjsG2646"><text id="SvgjsText2647" font-family="微软雅黑" text-anchor="middle" font-size="15px" width="76px" fill="#323232" font-weight="700" align="middle" lineHeight="125%" anchor="middle" family="微软雅黑" size="15px" weight="700" font-style="" opacity="1" y="14.625" transform="rotate(0)"><tspan id="SvgjsTspan2648" dy="18.75" x="48"><tspan id="SvgjsTspan2649" style="">game</tspan></tspan></text></g></g><g id="SvgjsG2650"><path id="SvgjsPath2651" d="M1273.5734018252638 208.18612939365235C 1098.2671739674688 208.00284915500217 1098.2671739674688 653.0028491550022 1273.5734018252638 652.8195689163521" stroke="#e855a4" stroke-width="1.5" fill="none" marker-start="url(#SvgjsMarker2652)" marker-end="url(#SvgjsMarker2654)"></path><rect id="SvgjsRect2656" width="70" height="19" x="1107.9352008256346" y="394.3708294291918" fill="#ffffff"></rect><text id="SvgjsText2657" font-family="微软雅黑" text-anchor="middle" font-size="15px" width="70px" fill="#323232" font-weight="700" align="top" lineHeight="19px" anchor="middle" family="微软雅黑" size="15px" weight="700" font-style="" opacity="1" y="391.4958294291918" transform="rotate(0)"><tspan id="SvgjsTspan2658" dy="18.75" x="1142.9352008256346"><tspan id="SvgjsTspan2659" style="">client_rs_1</tspan></tspan></text></g><g id="SvgjsG2660"><path id="SvgjsPath2661" d="M1374.9609461096738 208.18612939365235C 1550.2671739674688 208.002849155002 1550.2671739674688 653.002849155002 1374.9609461096738 652.8195689163521" stroke="#f199c8" stroke-width="1.5" fill="none" marker-start="url(#SvgjsMarker2662)" marker-end="url(#SvgjsMarker2664)"></path><rect id="SvgjsRect2666" width="70" height="19" x="1471.2302495295903" y="407.66547049464543" fill="#ffffff"></rect><text id="SvgjsText2667" font-family="微软雅黑" text-anchor="middle" font-size="15px" width="70px" fill="#323232" font-weight="700" align="top" lineHeight="19px" anchor="middle" family="微软雅黑" size="15px" weight="700" font-style="" opacity="1" y="404.79047049464543" transform="rotate(0)"><tspan id="SvgjsTspan2668" dy="18.75" x="1506.2302495295903"><tspan id="SvgjsTspan2669" style="">client_rs_2</tspan></tspan></text></g><g id="SvgjsG2670"><path id="SvgjsPath2671" d="M391.5084957546658 172.70284915500216C 391.5084957546658 276.4028491550022 391.5084957546659 329.6028491550022 391.5084957546658 433.30284915500215" stroke="#323232" stroke-width="1.5" fill="none" marker-start="url(#SvgjsMarker2672)" marker-end="url(#SvgjsMarker2674)"></path></g><g id="SvgjsG2676"><path id="SvgjsPath2677" d="M601.5084957546658 172.70284915500216C 601.5084957546658 276.4028491550022 601.5084957546658 329.6028491550022 601.5084957546658 433.30284915500215" stroke="#323232" stroke-width="1.5" fill="none" marker-start="url(#SvgjsMarker2678)" marker-end="url(#SvgjsMarker2680)"></path></g><g id="SvgjsG2682"><path id="SvgjsPath2683" d="M495.5084957546658 341.30284915500215C 495.5084957546658 238.00284915500217 495.5084957546658 185.00284915500217 495.5084957546658 81.70284915500216" stroke="#323232" stroke-width="1.5" fill="none" marker-start="url(#SvgjsMarker2684)" marker-end="url(#SvgjsMarker2686)"></path></g><g id="SvgjsG2688"><path id="SvgjsPath2689" d="M652.2084957546658 143.00284915500217C 693.1084957546658 143.0028491550021 714.9084957546658 143.00284915500217 755.8084957546657 143.00284915500217" stroke="#323232" stroke-width="1.5" fill="none" marker-start="url(#SvgjsMarker2690)" marker-end="url(#SvgjsMarker2692)"></path></g><g id="SvgjsG2694"><path id="SvgjsPath2695" d="M1017.2084957546658 202.00284915500217L1044.5084957546658 202.00284915500217L1044.5084957546658 52.00284915500217L546.2084957546658 52.00284915500217" stroke="#323232" stroke-width="1.5" fill="none" marker-start="url(#SvgjsMarker2696)" marker-end="url(#SvgjsMarker2698)"></path></g><g id="SvgjsG2700"><path id="SvgjsPath2701" d="M73.0084957546658 118.30284915500218L73.0084957546658 52.00284915500217L444.80849575466584 52.00284915500217" stroke="#323232" stroke-width="1.5" fill="none" marker-start="url(#SvgjsMarker2702)" marker-end="url(#SvgjsMarker2704)"></path></g><g id="SvgjsG2706"><path id="SvgjsPath2707" d="M270.7084957546658 143.00284915500217L305.7584957546658 143.00284915500217L305.7584957546658 143.00284915500217L340.80849575466584 143.00284915500217" stroke="#323232" stroke-width="1.5" fill="none" marker-start="url(#SvgjsMarker2708)" marker-end="url(#SvgjsMarker2710)"></path></g><g id="SvgjsG2712"><path id="SvgjsPath2713" d="M95.8084957546658 463.0028491550022L73.0084957546658 463.0028491550022L73.0084957546658 177.70284915500216" stroke="#323232" stroke-width="1.5" fill="none" marker-start="url(#SvgjsMarker2714)" marker-end="url(#SvgjsMarker2716)"></path></g><g id="SvgjsG2718"><path id="SvgjsPath2719" d="M197.2084957546658 463.0028491550022L220.0084957546658 463.0028491550022L220.0084957546658 172.70284915500216" stroke="#323232" stroke-width="1.5" fill="none" marker-start="url(#SvgjsMarker2720)" marker-end="url(#SvgjsMarker2722)"></path></g><g id="SvgjsG2724"><path id="SvgjsPath2725" d="M857.2084957546658 143.00284915500217L886.5084957546658 143.00284915500217L886.5084957546658 202.00284915500217L915.8084957546657 202.00284915500217" stroke-dasharray="8,5" stroke="#323232" stroke-width="1.5" fill="none" marker-start="url(#SvgjsMarker2726)" marker-end="url(#SvgjsMarker2728)"></path></g><g id="SvgjsG2730" transform="translate(758.5084957546658,215.00284915500217)"><path id="SvgjsPath2731" d="M 0 0L 96 0L 96 54L 0 54Z" stroke="rgba(33,41,48,1)" stroke-width="1.5" fill="none"></path><g id="SvgjsG2732"><text id="SvgjsText2733" font-family="微软雅黑" text-anchor="middle" font-size="15px" width="76px" fill="#323232" font-weight="700" align="middle" lineHeight="125%" anchor="middle" family="微软雅黑" size="15px" weight="700" font-style="" opacity="1" y="14.625" transform="rotate(0)"><tspan id="SvgjsTspan2734" dy="18.75" x="48"><tspan id="SvgjsTspan2735" style="">game</tspan></tspan></text></g></g><g id="SvgjsG2736"><path id="SvgjsPath2737" d="M652.2084957546658 463.0028491550022L704.0084957546658 463.0028491550022L704.0084957546658 143.00284915500217L755.8084957546657 143.00284915500217" stroke="#323232" stroke-width="1.5" fill="none" marker-start="url(#SvgjsMarker2738)" marker-end="url(#SvgjsMarker2740)"></path></g><g id="SvgjsG2742"><path id="SvgjsPath2743" d="M755.8084957546657 242.0028491550022L704.0084957546658 242.0028491550022L704.0084957546658 463.0028491550022L652.2084957546658 463.0028491550022" stroke="#323232" stroke-width="1.5" fill="none" marker-start="url(#SvgjsMarker2744)" marker-end="url(#SvgjsMarker2746)"></path></g><g id="SvgjsG2748" transform="translate(758.5084957546658,325.5028491550022)"><path id="SvgjsPath2749" d="M 0 0L 96 0L 96 54L 0 54Z" stroke="rgba(33,41,48,1)" stroke-width="1.5" fill="none"></path><g id="SvgjsG2750"><text id="SvgjsText2751" font-family="微软雅黑" text-anchor="middle" font-size="15px" width="76px" fill="#323232" font-weight="700" align="middle" lineHeight="125%" anchor="middle" family="微软雅黑" size="15px" weight="700" font-style="" opacity="1" y="14.625" transform="rotate(0)"><tspan id="SvgjsTspan2752" dy="18.75" x="48"><tspan id="SvgjsTspan2753" style="">game</tspan></tspan></text></g></g><g id="SvgjsG2754"><path id="SvgjsPath2755" d="M755.8084957546657 352.5028491550022L704.0084957546658 352.5028491550022L704.0084957546658 463.0028491550022L652.2084957546658 463.0028491550022" stroke="#323232" stroke-width="1.5" fill="none" marker-start="url(#SvgjsMarker2756)" marker-end="url(#SvgjsMarker2758)"></path></g><g id="SvgjsG2760" transform="translate(758.5084957546658,436.0028491550022)"><path id="SvgjsPath2761" d="M 0 0L 96 0L 96 54L 0 54Z" stroke="rgba(33,41,48,1)" stroke-width="1.5" fill="none"></path><g id="SvgjsG2762"><text id="SvgjsText2763" font-family="微软雅黑" text-anchor="middle" font-size="15px" width="76px" fill="#323232" font-weight="700" align="middle" lineHeight="125%" anchor="middle" family="微软雅黑" size="15px" weight="700" font-style="" opacity="1" y="14.625" transform="rotate(0)"><tspan id="SvgjsTspan2764" dy="18.75" x="48"><tspan id="SvgjsTspan2765" style="">game</tspan></tspan></text></g></g><g id="SvgjsG2766"><path id="SvgjsPath2767" d="M755.8084957546657 463.0028491550022L704.0084957546658 463.0028491550022L704.0084957546658 463.0028491550022L652.2084957546658 463.0028491550022" stroke="#323232" stroke-width="1.5" fill="none" marker-start="url(#SvgjsMarker2768)" marker-end="url(#SvgjsMarker2770)"></path></g><g id="SvgjsG2772" transform="translate(918.5084957546658,379.5028491550022)"><path id="SvgjsPath2773" d="M 0 0L 96 0L 96 54L 0 54Z" stroke="rgba(33,41,48,1)" stroke-width="1.5" fill="none"></path><g id="SvgjsG2774"><text id="SvgjsText2775" font-family="微软雅黑" text-anchor="middle" font-size="15px" width="76px" fill="#323232" font-weight="700" align="middle" lineHeight="125%" anchor="middle" family="微软雅黑" size="15px" weight="700" font-style="" opacity="1" y="14.625" transform="rotate(0)"><tspan id="SvgjsTspan2776" dy="18.75" x="48"><tspan id="SvgjsTspan2777" style="">cross</tspan></tspan></text></g></g><g id="SvgjsG2778"><path id="SvgjsPath2779" d="M1017.2084957546658 406.5028491550022L1044.5084957546658 406.5028491550022L1044.5084957546658 52.00284915500217L546.2084957546658 52.00284915500217" stroke="#323232" stroke-width="1.5" fill="none" marker-start="url(#SvgjsMarker2780)" marker-end="url(#SvgjsMarker2782)"></path></g><g id="SvgjsG2784"><path id="SvgjsPath2785" d="M857.2084957546658 242.0028491550022L886.5084957546658 242.0028491550022L886.5084957546658 202.00284915500217L915.8084957546657 202.00284915500217" stroke-dasharray="8,5" stroke="#323232" stroke-width="1.5" fill="none" marker-start="url(#SvgjsMarker2786)" marker-end="url(#SvgjsMarker2788)"></path></g><g id="SvgjsG2790"><path id="SvgjsPath2791" d="M915.8084957546657 406.5028491550022L886.5084957546658 406.5028491550022L886.5084957546658 352.5028491550022L857.2084957546658 352.5028491550022" stroke-dasharray="8,5" stroke="#323232" stroke-width="1.5" fill="none" marker-start="url(#SvgjsMarker2792)" marker-end="url(#SvgjsMarker2794)"></path></g><g id="SvgjsG2796"><path id="SvgjsPath2797" d="M857.2084957546658 463.0028491550022L886.5084957546658 463.0028491550022L886.5084957546658 406.5028491550022L915.8084957546657 406.5028491550022" stroke-dasharray="8,5" stroke="#323232" stroke-width="1.5" fill="none" marker-start="url(#SvgjsMarker2798)" marker-end="url(#SvgjsMarker2800)"></path></g><g id="SvgjsG2802" transform="translate(1264.2671739674688,46.574277726430736)"><path id="SvgjsPath2803" d="M 0 4Q 0 0 4 0L 92 0Q 96 0 96 4L 96 50Q 96 54 92 54L 4 54Q 0 54 0 50Z" stroke="rgba(33,41,48,1)" stroke-width="1.5" fill="none"></path><g id="SvgjsG2804"><text id="SvgjsText2805" font-family="微软雅黑" text-anchor="middle" font-size="15px" width="76px" fill="#323232" font-weight="700" align="middle" lineHeight="125%" anchor="middle" family="微软雅黑" size="15px" weight="700" font-style="" opacity="1" y="14.625" transform="rotate(0)"></text></g></g><g id="SvgjsG2806"><path id="SvgjsPath2807" d="M1324.2671739674688 178.30284915500218L1324.2671739674688 145.64570629785933L1324.2671739674688 145.64570629785933L1324.2671739674688 112.98856344071646" stroke="#323232" stroke-width="1.5" fill="none" marker-start="url(#SvgjsMarker2808)" marker-end="url(#SvgjsMarker2810)"></path></g><g id="SvgjsG2812" transform="translate(1276.2671739674688,388.0028491550022)"><path id="SvgjsPath2813" d="M 0 4Q 0 0 4 0L 92 0Q 96 0 96 4L 96 50Q 96 54 92 54L 4 54Q 0 54 0 50Z" stroke="rgba(33,41,48,1)" stroke-width="1.5" fill="none"></path><g id="SvgjsG2814"><text id="SvgjsText2815" font-family="微软雅黑" text-anchor="middle" font-size="15px" width="76px" fill="#323232" font-weight="700" align="middle" lineHeight="125%" anchor="middle" family="微软雅黑" size="15px" weight="700" font-style="" opacity="1" y="14.625" transform="rotate(0)"><tspan id="SvgjsTspan2816" dy="18.75" x="48"><tspan id="SvgjsTspan2817" style="">broker</tspan></tspan></text></g></g><g id="SvgjsG2818"><path id="SvgjsPath2819" d="M1324.2671739674688 237.70284915500216L1324.2671739674688 311.5028491550022L1324.2671739674688 311.5028491550022L1324.2671739674688 385.30284915500215" stroke="#323232" stroke-width="1.5" fill="none" marker-start="url(#SvgjsMarker2820)" marker-end="url(#SvgjsMarker2822)"></path></g><g id="SvgjsG2824"><path id="SvgjsPath2825" d="M1324.2671739674688 444.7028491550021L1324.2671739674688 534.0028491550022L1324.2671739674688 534.0028491550022L1324.2671739674688 623.3028491550021" stroke="#323232" stroke-width="1.5" fill="none" marker-start="url(#SvgjsMarker2826)" marker-end="url(#SvgjsMarker2828)"></path></g><g id="SvgjsG2830" transform="translate(1276.2671739674688,56.28856344071647)"><path id="SvgjsPath2831" d="M 0 4Q 0 0 4 0L 92 0Q 96 0 96 4L 96 50Q 96 54 92 54L 4 54Q 0 54 0 50Z" stroke="rgba(33,41,48,1)" stroke-width="1.5" fill="none"></path><g id="SvgjsG2832"><text id="SvgjsText2833" font-family="微软雅黑" text-anchor="middle" font-size="15px" width="76px" fill="#323232" font-weight="700" align="middle" lineHeight="125%" anchor="middle" family="微软雅黑" size="15px" weight="700" font-style="" opacity="1" y="14.625" transform="rotate(0)"><tspan id="SvgjsTspan2834" dy="18.75" x="48"><tspan id="SvgjsTspan2835" style="">client</tspan></tspan></text></g></g></svg>