<svg id="SvgjsSvg2231" width="1156.9886086203835" height="681.4289634011009" xmlns="http://www.w3.org/2000/svg" version="1.1" xmlns:xlink="http://www.w3.org/1999/xlink" xmlns:svgjs="http://svgjs.com/svgjs"><defs id="SvgjsDefs2232"><pattern patternUnits="userSpaceOnUse" id="pattern_mark_0" width="300" height="300"><text x="150" y="100" fill="rgba(229,229,229,0.8)" font-size="18" transform="rotate(-45, 150, 150)" style="dominant-baseline: middle; text-anchor: middle;"></text></pattern><pattern patternUnits="userSpaceOnUse" id="pattern_mark_1" width="300" height="300"><text x="150" y="200" fill="rgba(229,229,229,0.8)" font-size="18" transform="rotate(-45, 150, 150)" style="dominant-baseline: middle; text-anchor: middle;"></text></pattern><marker id="SvgjsMarker2260" markerWidth="13" markerHeight="9" refX="9.5" refY="4.5" viewBox="0 0 13 9" orient="auto" markerUnits="userSpaceOnUse" stroke-dasharray="0,0"><path id="SvgjsPath2261" d="M0,0 L13,4.5 L0,9 L0,0" fill="#323232" stroke="#323232" stroke-width="1"></path></marker><marker id="SvgjsMarker2264" markerWidth="13" markerHeight="9" refX="9.5" refY="4.5" viewBox="0 0 13 9" orient="auto" markerUnits="userSpaceOnUse" stroke-dasharray="0,0"><path id="SvgjsPath2265" d="M0,0 L13,4.5 L0,9 L0,0" fill="#323232" stroke="#323232" stroke-width="1"></path></marker><marker id="SvgjsMarker2296" markerWidth="13" markerHeight="9" refX="9.5" refY="4.5" viewBox="0 0 13 9" orient="auto" markerUnits="userSpaceOnUse" stroke-dasharray="0,0"><path id="SvgjsPath2297" d="M0,0 L13,4.5 L0,9 L0,0" fill="#323232" stroke="#323232" stroke-width="1"></path></marker><marker id="SvgjsMarker2300" markerWidth="13" markerHeight="9" refX="9.5" refY="4.5" viewBox="0 0 13 9" orient="auto" markerUnits="userSpaceOnUse" stroke-dasharray="0,0"><path id="SvgjsPath2301" d="M0,0 L13,4.5 L0,9 L0,0" fill="#323232" stroke="#323232" stroke-width="1"></path></marker><marker id="SvgjsMarker2332" markerWidth="13" markerHeight="9" refX="9.5" refY="4.5" viewBox="0 0 13 9" orient="auto" markerUnits="userSpaceOnUse" stroke-dasharray="0,0"><path id="SvgjsPath2333" d="M0,0 L13,4.5 L0,9 L0,0" fill="#323232" stroke="#323232" stroke-width="1"></path></marker><marker id="SvgjsMarker2336" markerWidth="13" markerHeight="9" refX="9.5" refY="4.5" viewBox="0 0 13 9" orient="auto" markerUnits="userSpaceOnUse" stroke-dasharray="0,0"><path id="SvgjsPath2337" d="M0,0 L13,4.5 L0,9 L0,0" fill="#323232" stroke="#323232" stroke-width="1"></path></marker><marker id="SvgjsMarker2374" markerWidth="13" markerHeight="9" refX="9.5" refY="4.5" viewBox="0 0 13 9" orient="auto" markerUnits="userSpaceOnUse" stroke-dasharray="0,0"><path id="SvgjsPath2375" d="M0,0 L13,4.5 L0,9 L0,0" fill="#323232" stroke="#323232" stroke-width="1"></path></marker><marker id="SvgjsMarker2378" markerWidth="13" markerHeight="9" refX="9.5" refY="4.5" viewBox="0 0 13 9" orient="auto" markerUnits="userSpaceOnUse" stroke-dasharray="0,0"><path id="SvgjsPath2379" d="M0,0 L13,4.5 L0,9 L0,0" fill="#323232" stroke="#323232" stroke-width="1"></path></marker><marker id="SvgjsMarker2382" markerWidth="13" markerHeight="9" refX="9.5" refY="4.5" viewBox="0 0 13 9" orient="auto" markerUnits="userSpaceOnUse" stroke-dasharray="0,0"><path id="SvgjsPath2383" d="M0,0 L13,4.5 L0,9 L0,0" fill="#323232" stroke="#323232" stroke-width="1"></path></marker><marker id="SvgjsMarker2386" markerWidth="13" markerHeight="9" refX="9.5" refY="4.5" viewBox="0 0 13 9" orient="auto" markerUnits="userSpaceOnUse" stroke-dasharray="0,0"><path id="SvgjsPath2387" d="M0,0 L13,4.5 L0,9 L0,0" fill="#323232" stroke="#323232" stroke-width="1"></path></marker><marker id="SvgjsMarker2390" markerWidth="13" markerHeight="9" refX="9.5" refY="4.5" viewBox="0 0 13 9" orient="auto" markerUnits="userSpaceOnUse" stroke-dasharray="0,0"><path id="SvgjsPath2391" d="M0,0 L13,4.5 L0,9 L0,0" fill="#323232" stroke="#323232" stroke-width="1"></path></marker><marker id="SvgjsMarker2394" markerWidth="13" markerHeight="9" refX="9.5" refY="4.5" viewBox="0 0 13 9" orient="auto" markerUnits="userSpaceOnUse" stroke-dasharray="0,0"><path id="SvgjsPath2395" d="M0,0 L13,4.5 L0,9 L0,0" fill="#323232" stroke="#323232" stroke-width="1"></path></marker><marker id="SvgjsMarker2426" markerWidth="13" markerHeight="9" refX="9.5" refY="4.5" viewBox="0 0 13 9" orient="auto" markerUnits="userSpaceOnUse" stroke-dasharray="0,0"><path id="SvgjsPath2427" d="M0,0 L13,4.5 L0,9 L0,0" fill="#323232" stroke="#323232" stroke-width="1"></path></marker><marker id="SvgjsMarker2430" markerWidth="13" markerHeight="9" refX="9.5" refY="4.5" viewBox="0 0 13 9" orient="auto" markerUnits="userSpaceOnUse" stroke-dasharray="0,0"><path id="SvgjsPath2431" d="M0,0 L13,4.5 L0,9 L0,0" fill="#323232" stroke="#323232" stroke-width="1"></path></marker><marker id="SvgjsMarker2434" markerWidth="13" markerHeight="9" refX="9.5" refY="4.5" viewBox="0 0 13 9" orient="auto" markerUnits="userSpaceOnUse" stroke-dasharray="0,0"><path id="SvgjsPath2435" d="M0,0 L13,4.5 L0,9 L0,0" fill="#323232" stroke="#323232" stroke-width="1"></path></marker><marker id="SvgjsMarker2466" markerWidth="13" markerHeight="9" refX="9.5" refY="4.5" viewBox="0 0 13 9" orient="auto" markerUnits="userSpaceOnUse" stroke-dasharray="0,0"><path id="SvgjsPath2467" d="M0,0 L13,4.5 L0,9 L0,0" fill="#323232" stroke="#323232" stroke-width="1"></path></marker><marker id="SvgjsMarker2470" markerWidth="13" markerHeight="9" refX="9.5" refY="4.5" viewBox="0 0 13 9" orient="auto" markerUnits="userSpaceOnUse" stroke-dasharray="0,0"><path id="SvgjsPath2471" d="M0,0 L13,4.5 L0,9 L0,0" fill="#323232" stroke="#323232" stroke-width="1"></path></marker><marker id="SvgjsMarker2474" markerWidth="13" markerHeight="9" refX="9.5" refY="4.5" viewBox="0 0 13 9" orient="auto" markerUnits="userSpaceOnUse" stroke-dasharray="0,0"><path id="SvgjsPath2475" d="M0,0 L13,4.5 L0,9 L0,0" fill="#323232" stroke="#323232" stroke-width="1"></path></marker></defs><rect id="svgbackgroundid" width="1156.9886086203835" height="681.4289634011009" fill="transparent"></rect><rect id="SvgjsRect2234" width="1156.9886086203835" height="681.4289634011009" fill="url(#pattern_mark_0)"></rect><rect id="SvgjsRect2235" width="1156.9886086203835" height="681.4289634011009" fill="url(#pattern_mark_1)"></rect><g id="SvgjsG2236" transform="translate(797.0020638998452,25.004913825493333)"><path id="SvgjsPath2237" d="M 0 0L 335 0L 335 294L 0 294Z" stroke-dasharray="3,4" stroke="rgba(241,153,200,1)" stroke-width="1.5" fill="none"></path><g id="SvgjsG2238"><text id="SvgjsText2239" font-family="微软雅黑" text-anchor="middle" font-size="15px" width="315px" fill="#323232" font-weight="700" align="middle" lineHeight="125%" anchor="middle" family="微软雅黑" size="15px" weight="700" font-style="" opacity="1" y="134.625" transform="rotate(0)"></text></g></g><g id="SvgjsG2240" transform="translate(920.5020638998452,254.0049138254933)"><path id="SvgjsPath2241" d="M 0 4Q 0 0 4 0L 92 0Q 96 0 96 4L 96 50Q 96 54 92 54L 4 54Q 0 54 0 50Z" stroke="rgba(33,41,48,1)" stroke-width="1.5" fill="none"></path><g id="SvgjsG2242"><text id="SvgjsText2243" font-family="微软雅黑" text-anchor="middle" font-size="15px" width="76px" fill="#323232" font-weight="700" align="middle" lineHeight="125%" anchor="middle" family="微软雅黑" size="15px" weight="700" font-style="" opacity="1" y="14.625" transform="rotate(0)"><tspan id="SvgjsTspan2244" dy="18.75" x="48"><tspan id="SvgjsTspan2245" style="">broker</tspan></tspan></text></g></g><g id="SvgjsG2246" transform="translate(832.0020638998452,105.00491382549333)"><path id="SvgjsPath2247" d="M 0 0L 96 0L 96 54L 0 54Z" stroke="rgba(33,41,48,1)" stroke-width="1.5" fill="none"></path><g id="SvgjsG2248"><text id="SvgjsText2249" font-family="微软雅黑" text-anchor="middle" font-size="15px" width="76px" fill="#323232" font-weight="700" align="middle" lineHeight="125%" anchor="middle" family="微软雅黑" size="15px" weight="700" font-style="" opacity="1" y="14.625" transform="rotate(0)"><tspan id="SvgjsTspan2250" dy="18.75" x="48"><tspan id="SvgjsTspan2251" style="">game_1</tspan></tspan></text></g></g><g id="SvgjsG2252" transform="translate(1005.0020638998458,105.00491382549333)"><path id="SvgjsPath2253" d="M 0 0L 96 0L 96 54L 0 54Z" stroke="rgba(33,41,48,1)" stroke-width="1.5" fill="none"></path><g id="SvgjsG2254"><text id="SvgjsText2255" font-family="微软雅黑" text-anchor="middle" font-size="15px" width="76px" fill="#323232" font-weight="700" align="middle" lineHeight="125%" anchor="middle" family="微软雅黑" size="15px" weight="700" font-style="" opacity="1" y="14.625" transform="rotate(0)"><tspan id="SvgjsTspan2256" dy="18.75" x="48"><tspan id="SvgjsTspan2257" style="">game_N</tspan></tspan></text></g></g><g id="SvgjsG2258"><path id="SvgjsPath2259" d="M1053.0020638998462 159.75491382549333L1053.0020638998462 281.0049138254933L1019.2020638998463 281.0049138254933" stroke="#323232" stroke-width="1.5" fill="none" marker-end="url(#SvgjsMarker2260)"></path></g><g id="SvgjsG2262"><path id="SvgjsPath2263" d="M880.0020638998452 159.75491382549333L880.0020638998452 281.0049138254933L917.8020638998452 281.0049138254933" stroke="#323232" stroke-width="1.5" fill="none" marker-end="url(#SvgjsMarker2264)"></path></g><g id="SvgjsG2266" transform="translate(916.0020638998452,37.00491382549333)"><path id="SvgjsPath2267" d="M 0 0L 96 0L 96 54L 0 54Z" stroke="rgba(33,41,48,1)" stroke-width="1.5" fill="none"></path><g id="SvgjsG2268"><text id="SvgjsText2269" font-family="微软雅黑" text-anchor="middle" font-size="15px" width="76px" fill="#323232" font-weight="700" align="middle" lineHeight="125%" anchor="middle" family="微软雅黑" size="15px" weight="700" font-style="" opacity="1" y="14.625" transform="rotate(0)"><tspan id="SvgjsTspan2270" dy="18.75" x="48"><tspan id="SvgjsTspan2271" style="">cross</tspan></tspan></text></g></g><g id="SvgjsG2272" transform="translate(411.0020638998452,25.004913825493333)"><path id="SvgjsPath2273" d="M 0 0L 335 0L 335 294L 0 294Z" stroke-dasharray="3,4" stroke="rgba(241,153,200,1)" stroke-width="1.5" fill="none"></path><g id="SvgjsG2274"><text id="SvgjsText2275" font-family="微软雅黑" text-anchor="middle" font-size="15px" width="315px" fill="#323232" font-weight="700" align="middle" lineHeight="125%" anchor="middle" family="微软雅黑" size="15px" weight="700" font-style="" opacity="1" y="134.625" transform="rotate(0)"></text></g></g><g id="SvgjsG2276" transform="translate(534.5020638998452,248.0049138254933)"><path id="SvgjsPath2277" d="M 0 4Q 0 0 4 0L 92 0Q 96 0 96 4L 96 50Q 96 54 92 54L 4 54Q 0 54 0 50Z" stroke="rgba(33,41,48,1)" stroke-width="1.5" fill="none"></path><g id="SvgjsG2278"><text id="SvgjsText2279" font-family="微软雅黑" text-anchor="middle" font-size="15px" width="76px" fill="#323232" font-weight="700" align="middle" lineHeight="125%" anchor="middle" family="微软雅黑" size="15px" weight="700" font-style="" opacity="1" y="14.625" transform="rotate(0)"><tspan id="SvgjsTspan2280" dy="18.75" x="48"><tspan id="SvgjsTspan2281" style="">broker</tspan></tspan></text></g></g><g id="SvgjsG2282" transform="translate(446.0020638998452,99.00491382549333)"><path id="SvgjsPath2283" d="M 0 0L 96 0L 96 54L 0 54Z" stroke="rgba(33,41,48,1)" stroke-width="1.5" fill="none"></path><g id="SvgjsG2284"><text id="SvgjsText2285" font-family="微软雅黑" text-anchor="middle" font-size="15px" width="76px" fill="#323232" font-weight="700" align="middle" lineHeight="125%" anchor="middle" family="微软雅黑" size="15px" weight="700" font-style="" opacity="1" y="14.625" transform="rotate(0)"><tspan id="SvgjsTspan2286" dy="18.75" x="48"><tspan id="SvgjsTspan2287" style="">game_1</tspan></tspan></text></g></g><g id="SvgjsG2288" transform="translate(619.0020638998452,99.00491382549333)"><path id="SvgjsPath2289" d="M 0 0L 96 0L 96 54L 0 54Z" stroke="rgba(33,41,48,1)" stroke-width="1.5" fill="none"></path><g id="SvgjsG2290"><text id="SvgjsText2291" font-family="微软雅黑" text-anchor="middle" font-size="15px" width="76px" fill="#323232" font-weight="700" align="middle" lineHeight="125%" anchor="middle" family="微软雅黑" size="15px" weight="700" font-style="" opacity="1" y="14.625" transform="rotate(0)"><tspan id="SvgjsTspan2292" dy="18.75" x="48"><tspan id="SvgjsTspan2293" style="">game_N</tspan></tspan></text></g></g><g id="SvgjsG2294"><path id="SvgjsPath2295" d="M667.0020638998452 153.75491382549333L667.0020638998452 275.0049138254933L633.2020638998453 275.0049138254933" stroke="#323232" stroke-width="1.5" fill="none" marker-end="url(#SvgjsMarker2296)"></path></g><g id="SvgjsG2298"><path id="SvgjsPath2299" d="M494.0020638998452 153.75491382549333L494.0020638998452 275.0049138254933L531.8020638998452 275.0049138254933" stroke="#323232" stroke-width="1.5" fill="none" marker-end="url(#SvgjsMarker2300)"></path></g><g id="SvgjsG2302" transform="translate(534.5020638998452,31.004913825493333)"><path id="SvgjsPath2303" d="M 0 0L 96 0L 96 54L 0 54Z" stroke="rgba(33,41,48,1)" stroke-width="1.5" fill="none"></path><g id="SvgjsG2304"><text id="SvgjsText2305" font-family="微软雅黑" text-anchor="middle" font-size="15px" width="76px" fill="#323232" font-weight="700" align="middle" lineHeight="125%" anchor="middle" family="微软雅黑" size="15px" weight="700" font-style="" opacity="1" y="14.625" transform="rotate(0)"><tspan id="SvgjsTspan2306" dy="18.75" x="48"><tspan id="SvgjsTspan2307" style="">cross</tspan></tspan></text></g></g><g id="SvgjsG2308" transform="translate(25.002063899845197,25.004913825493333)"><path id="SvgjsPath2309" d="M 0 0L 335 0L 335 294L 0 294Z" stroke-dasharray="3,4" stroke="rgba(241,153,200,1)" stroke-width="1.5" fill="none"></path><g id="SvgjsG2310"><text id="SvgjsText2311" font-family="微软雅黑" text-anchor="middle" font-size="15px" width="315px" fill="#323232" font-weight="700" align="middle" lineHeight="125%" anchor="middle" family="微软雅黑" size="15px" weight="700" font-style="" opacity="1" y="134.625" transform="rotate(0)"></text></g></g><g id="SvgjsG2312" transform="translate(148.5020638998452,248.0049138254933)"><path id="SvgjsPath2313" d="M 0 4Q 0 0 4 0L 92 0Q 96 0 96 4L 96 50Q 96 54 92 54L 4 54Q 0 54 0 50Z" stroke="rgba(33,41,48,1)" stroke-width="1.5" fill="none"></path><g id="SvgjsG2314"><text id="SvgjsText2315" font-family="微软雅黑" text-anchor="middle" font-size="15px" width="76px" fill="#323232" font-weight="700" align="middle" lineHeight="125%" anchor="middle" family="微软雅黑" size="15px" weight="700" font-style="" opacity="1" y="14.625" transform="rotate(0)"><tspan id="SvgjsTspan2316" dy="18.75" x="48"><tspan id="SvgjsTspan2317" style="">broker</tspan></tspan></text></g></g><g id="SvgjsG2318" transform="translate(60.0020638998452,99.00491382549333)"><path id="SvgjsPath2319" d="M 0 0L 96 0L 96 54L 0 54Z" stroke="rgba(33,41,48,1)" stroke-width="1.5" fill="none"></path><g id="SvgjsG2320"><text id="SvgjsText2321" font-family="微软雅黑" text-anchor="middle" font-size="15px" width="76px" fill="#323232" font-weight="700" align="middle" lineHeight="125%" anchor="middle" family="微软雅黑" size="15px" weight="700" font-style="" opacity="1" y="14.625" transform="rotate(0)"><tspan id="SvgjsTspan2322" dy="18.75" x="48"><tspan id="SvgjsTspan2323" style="">game_1</tspan></tspan></text></g></g><g id="SvgjsG2324" transform="translate(233.0020638998452,99.00491382549333)"><path id="SvgjsPath2325" d="M 0 0L 96 0L 96 54L 0 54Z" stroke="rgba(33,41,48,1)" stroke-width="1.5" fill="none"></path><g id="SvgjsG2326"><text id="SvgjsText2327" font-family="微软雅黑" text-anchor="middle" font-size="15px" width="76px" fill="#323232" font-weight="700" align="middle" lineHeight="125%" anchor="middle" family="微软雅黑" size="15px" weight="700" font-style="" opacity="1" y="14.625" transform="rotate(0)"><tspan id="SvgjsTspan2328" dy="18.75" x="48"><tspan id="SvgjsTspan2329" style="">game_N</tspan></tspan></text></g></g><g id="SvgjsG2330"><path id="SvgjsPath2331" d="M281.0020638998452 153.75491382549333L281.0020638998452 275.0049138254933L247.2020638998452 275.0049138254933" stroke="#323232" stroke-width="1.5" fill="none" marker-end="url(#SvgjsMarker2332)"></path></g><g id="SvgjsG2334"><path id="SvgjsPath2335" d="M108.0020638998452 153.75491382549333L108.0020638998452 275.0049138254933L145.80206389984522 275.0049138254933" stroke="#323232" stroke-width="1.5" fill="none" marker-end="url(#SvgjsMarker2336)"></path></g><g id="SvgjsG2338" transform="translate(148.5020638998452,31.004913825493333)"><path id="SvgjsPath2339" d="M 0 0L 96 0L 96 54L 0 54Z" stroke="rgba(33,41,48,1)" stroke-width="1.5" fill="none"></path><g id="SvgjsG2340"><text id="SvgjsText2341" font-family="微软雅黑" text-anchor="middle" font-size="15px" width="76px" fill="#323232" font-weight="700" align="middle" lineHeight="125%" anchor="middle" family="微软雅黑" size="15px" weight="700" font-style="" opacity="1" y="14.625" transform="rotate(0)"><tspan id="SvgjsTspan2342" dy="18.75" x="48"><tspan id="SvgjsTspan2343" style="">cross</tspan></tspan></text></g></g><g id="SvgjsG2344" transform="translate(25.002063899845197,362.43348525406475)"><path id="SvgjsPath2345" d="M 0 0L 335 0L 335 294L 0 294Z" stroke-dasharray="3,4" stroke="rgba(241,153,200,1)" stroke-width="1.5" fill="none"></path><g id="SvgjsG2346"><text id="SvgjsText2347" font-family="微软雅黑" text-anchor="middle" font-size="15px" width="315px" fill="#323232" font-weight="700" align="middle" lineHeight="125%" anchor="middle" family="微软雅黑" size="15px" weight="700" font-style="" opacity="1" y="134.625" transform="rotate(0)"></text></g></g><g id="SvgjsG2348" transform="translate(144.5020638998452,367.43348525406475)"><path id="SvgjsPath2349" d="M 0 4Q 0 0 4 0L 92 0Q 96 0 96 4L 96 50Q 96 54 92 54L 4 54Q 0 54 0 50Z" stroke="rgba(33,41,48,1)" stroke-width="1.5" fill="none"></path><g id="SvgjsG2350"><text id="SvgjsText2351" font-family="微软雅黑" text-anchor="middle" font-size="15px" width="76px" fill="#323232" font-weight="700" align="middle" lineHeight="125%" anchor="middle" family="微软雅黑" size="15px" weight="700" font-style="" opacity="1" y="14.625" transform="rotate(0)"><tspan id="SvgjsTspan2352" dy="18.75" x="48"><tspan id="SvgjsTspan2353" style="">broker</tspan></tspan></text></g></g><g id="SvgjsG2354" transform="translate(60.0020638998452,485.43348525406475)"><path id="SvgjsPath2355" d="M 0 0L 96 0L 96 54L 0 54Z" stroke="rgba(33,41,48,1)" stroke-width="1.5" fill="none"></path><g id="SvgjsG2356"><text id="SvgjsText2357" font-family="微软雅黑" text-anchor="middle" font-size="15px" width="76px" fill="#323232" font-weight="700" align="middle" lineHeight="125%" anchor="middle" family="微软雅黑" size="15px" weight="700" font-style="" opacity="1" y="14.625" transform="rotate(0)"><tspan id="SvgjsTspan2358" dy="18.75" x="48"><tspan id="SvgjsTspan2359" style="">game_1</tspan></tspan></text></g></g><g id="SvgjsG2360" transform="translate(233.0020638998452,485.43348525406475)"><path id="SvgjsPath2361" d="M 0 0L 96 0L 96 54L 0 54Z" stroke="rgba(33,41,48,1)" stroke-width="1.5" fill="none"></path><g id="SvgjsG2362"><text id="SvgjsText2363" font-family="微软雅黑" text-anchor="middle" font-size="15px" width="76px" fill="#323232" font-weight="700" align="middle" lineHeight="125%" anchor="middle" family="微软雅黑" size="15px" weight="700" font-style="" opacity="1" y="14.625" transform="rotate(0)"><tspan id="SvgjsTspan2364" dy="18.75" x="48"><tspan id="SvgjsTspan2365" style="">game_N</tspan></tspan></text></g></g><g id="SvgjsG2366" transform="translate(144.5020638998452,574.4334852540647)"><path id="SvgjsPath2367" d="M 0 0L 96 0L 96 54L 0 54Z" stroke="rgba(33,41,48,1)" stroke-width="1.5" fill="none"></path><g id="SvgjsG2368"><text id="SvgjsText2369" font-family="微软雅黑" text-anchor="middle" font-size="15px" width="76px" fill="#323232" font-weight="700" align="middle" lineHeight="125%" anchor="middle" family="微软雅黑" size="15px" weight="700" font-style="" opacity="1" y="14.625" transform="rotate(0)"><tspan id="SvgjsTspan2370" dy="18.75" x="48"><tspan id="SvgjsTspan2371" style="">cross</tspan></tspan></text></g></g><g id="SvgjsG2372"><path id="SvgjsPath2373" d="M108.0020638998452 484.68348525406475L108.0020638998452 394.43348525406475L141.80206389984522 394.43348525406475" stroke="#323232" stroke-width="1.5" fill="none" marker-end="url(#SvgjsMarker2374)"></path></g><g id="SvgjsG2376"><path id="SvgjsPath2377" d="M281.0020638998452 484.68348525406475L281.0020638998452 394.43348525406475L243.2020638998452 394.43348525406475" stroke="#323232" stroke-width="1.5" fill="none" marker-end="url(#SvgjsMarker2378)"></path></g><g id="SvgjsG2380"><path id="SvgjsPath2381" d="M192.5020638998452 573.6834852540647L192.5020638998452 497.93348525406475L192.5020638998452 497.93348525406475L192.5020638998452 424.1334852540648" stroke="#323232" stroke-width="1.5" fill="none" marker-end="url(#SvgjsMarker2382)"></path></g><g id="SvgjsG2384"><path id="SvgjsPath2385" d="M196.5020638998452 85.75491382549333L196.5020638998452 166.50491382549333L196.5020638998452 166.50491382549333L196.5020638998452 245.30491382549337" stroke="#323232" stroke-width="1.5" fill="none" marker-end="url(#SvgjsMarker2386)"></path></g><g id="SvgjsG2388"><path id="SvgjsPath2389" d="M582.5020638998452 85.75491382549333L582.5020638998452 166.50491382549333L582.5020638998452 166.50491382549333L582.5020638998452 245.30491382549337" stroke="#323232" stroke-width="1.5" fill="none" marker-end="url(#SvgjsMarker2390)"></path></g><g id="SvgjsG2392"><path id="SvgjsPath2393" d="M964.0020638998452 91.75491382549333L964.0020638998452 169.50491382549333L964.0020638998452 169.50491382549333L964.0020638998452 248.0049138254933" stroke="#323232" stroke-width="1.5" fill="none" marker-end="url(#SvgjsMarker2394)"></path></g><g id="SvgjsG2396" transform="translate(411.0020638998452,362.43348525406475)"><path id="SvgjsPath2397" d="M 0 0L 335 0L 335 294L 0 294Z" stroke-dasharray="3,4" stroke="rgba(70,105,234,1)" stroke-width="1.5" fill="none"></path><g id="SvgjsG2398"><text id="SvgjsText2399" font-family="微软雅黑" text-anchor="middle" font-size="15px" width="315px" fill="#323232" font-weight="700" align="middle" lineHeight="125%" anchor="middle" family="微软雅黑" size="15px" weight="700" font-style="" opacity="1" y="134.625" transform="rotate(0)"></text></g></g><g id="SvgjsG2400" transform="translate(530.5020638998452,367.43348525406475)"><path id="SvgjsPath2401" d="M 0 4Q 0 0 4 0L 92 0Q 96 0 96 4L 96 50Q 96 54 92 54L 4 54Q 0 54 0 50Z" stroke="rgba(33,41,48,1)" stroke-width="1.5" fill="none"></path><g id="SvgjsG2402"><text id="SvgjsText2403" font-family="微软雅黑" text-anchor="middle" font-size="15px" width="76px" fill="#323232" font-weight="700" align="middle" lineHeight="125%" anchor="middle" family="微软雅黑" size="15px" weight="700" font-style="" opacity="1" y="14.625" transform="rotate(0)"><tspan id="SvgjsTspan2404" dy="18.75" x="48"><tspan id="SvgjsTspan2405" style="">broker</tspan></tspan></text></g></g><g id="SvgjsG2406" transform="translate(446.0020638998452,485.43348525406475)"><path id="SvgjsPath2407" d="M 0 0L 96 0L 96 54L 0 54Z" stroke="rgba(33,41,48,1)" stroke-width="1.5" fill="none"></path><g id="SvgjsG2408"><text id="SvgjsText2409" font-family="微软雅黑" text-anchor="middle" font-size="15px" width="76px" fill="#323232" font-weight="700" align="middle" lineHeight="125%" anchor="middle" family="微软雅黑" size="15px" weight="700" font-style="" opacity="1" y="14.625" transform="rotate(0)"><tspan id="SvgjsTspan2410" dy="18.75" x="48"><tspan id="SvgjsTspan2411" style="">payment</tspan></tspan></text></g></g><g id="SvgjsG2412" transform="translate(619.0020638998452,485.43348525406475)"><path id="SvgjsPath2413" d="M 0 0L 96 0L 96 54L 0 54Z" stroke="rgba(33,41,48,1)" stroke-width="1.5" fill="none"></path><g id="SvgjsG2414"><text id="SvgjsText2415" font-family="微软雅黑" text-anchor="middle" font-size="15px" width="76px" fill="#323232" font-weight="700" align="middle" lineHeight="125%" anchor="middle" family="微软雅黑" size="15px" weight="700" font-style="" opacity="1" y="14.625" transform="rotate(0)"><tspan id="SvgjsTspan2416" dy="18.75" x="48"><tspan id="SvgjsTspan2417" style="">login</tspan></tspan></text></g></g><g id="SvgjsG2418" transform="translate(530.5020638998452,574.4334852540647)"><path id="SvgjsPath2419" d="M 0 0L 96 0L 96 54L 0 54Z" stroke="rgba(33,41,48,1)" stroke-width="1.5" fill="none"></path><g id="SvgjsG2420"><text id="SvgjsText2421" font-family="微软雅黑" text-anchor="middle" font-size="15px" width="76px" fill="#323232" font-weight="700" align="middle" lineHeight="125%" anchor="middle" family="微软雅黑" size="15px" weight="700" font-style="" opacity="1" y="14.625" transform="rotate(0)"><tspan id="SvgjsTspan2422" dy="18.75" x="48"><tspan id="SvgjsTspan2423" style="">admin</tspan></tspan></text></g></g><g id="SvgjsG2424"><path id="SvgjsPath2425" d="M494.0020638998452 484.68348525406475L494.0020638998452 394.43348525406475L527.8020638998452 394.43348525406475" stroke="#323232" stroke-width="1.5" fill="none" marker-end="url(#SvgjsMarker2426)"></path></g><g id="SvgjsG2428"><path id="SvgjsPath2429" d="M667.0020638998452 484.68348525406475L667.0020638998452 394.43348525406475L629.2020638998453 394.43348525406475" stroke="#323232" stroke-width="1.5" fill="none" marker-end="url(#SvgjsMarker2430)"></path></g><g id="SvgjsG2432"><path id="SvgjsPath2433" d="M578.5020638998452 573.6834852540647L578.5020638998452 497.93348525406475L578.5020638998452 497.93348525406475L578.5020638998452 424.1334852540648" stroke="#323232" stroke-width="1.5" fill="none" marker-end="url(#SvgjsMarker2434)"></path></g><g id="SvgjsG2436" transform="translate(797.0020638998452,362.43348525406475)"><path id="SvgjsPath2437" d="M 0 0L 335 0L 335 294L 0 294Z" stroke-dasharray="3,4" stroke="rgba(224,196,49,1)" stroke-width="1.5" fill="none"></path><g id="SvgjsG2438"><text id="SvgjsText2439" font-family="微软雅黑" text-anchor="middle" font-size="15px" width="315px" fill="#323232" font-weight="700" align="middle" lineHeight="125%" anchor="middle" family="微软雅黑" size="15px" weight="700" font-style="" opacity="1" y="134.625" transform="rotate(0)"></text></g></g><g id="SvgjsG2440" transform="translate(916.5020638998452,367.43348525406475)"><path id="SvgjsPath2441" d="M 0 4Q 0 0 4 0L 92 0Q 96 0 96 4L 96 50Q 96 54 92 54L 4 54Q 0 54 0 50Z" stroke="rgba(33,41,48,1)" stroke-width="1.5" fill="none"></path><g id="SvgjsG2442"><text id="SvgjsText2443" font-family="微软雅黑" text-anchor="middle" font-size="15px" width="76px" fill="#323232" font-weight="700" align="middle" lineHeight="125%" anchor="middle" family="微软雅黑" size="15px" weight="700" font-style="" opacity="1" y="14.625" transform="rotate(0)"><tspan id="SvgjsTspan2444" dy="18.75" x="48"><tspan id="SvgjsTspan2445" style="">broker</tspan></tspan></text></g></g><g id="SvgjsG2446" transform="translate(813.4306353284167,485.43348525406475)"><path id="SvgjsPath2447" d="M 0 0L 96 0L 96 54L 0 54Z" stroke="rgba(33,41,48,1)" stroke-width="1.5" fill="none"></path><g id="SvgjsG2448"><text id="SvgjsText2449" font-family="微软雅黑" text-anchor="middle" font-size="15px" width="76px" fill="#323232" font-weight="700" align="middle" lineHeight="125%" anchor="middle" family="微软雅黑" size="15px" weight="700" font-style="" opacity="1" y="14.625" transform="rotate(0)"><tspan id="SvgjsTspan2450" dy="18.75" x="48"><tspan id="SvgjsTspan2451" style="">gateway_1</tspan></tspan></text></g></g><g id="SvgjsG2452" transform="translate(1012.5020638998462,482.43348525406475)"><path id="SvgjsPath2453" d="M 0 0L 96 0L 96 54L 0 54Z" stroke="rgba(33,41,48,1)" stroke-width="1.5" fill="none"></path><g id="SvgjsG2454"><text id="SvgjsText2455" font-family="微软雅黑" text-anchor="middle" font-size="15px" width="76px" fill="#323232" font-weight="700" align="middle" lineHeight="125%" anchor="middle" family="微软雅黑" size="15px" weight="700" font-style="" opacity="1" y="14.625" transform="rotate(0)"><tspan id="SvgjsTspan2456" dy="18.75" x="48"><tspan id="SvgjsTspan2457" style="">gateway_2</tspan></tspan></text></g></g><g id="SvgjsG2458" transform="translate(916.5020638998452,574.4334852540647)"><path id="SvgjsPath2459" d="M 0 0L 96 0L 96 54L 0 54Z" stroke="rgba(33,41,48,1)" stroke-width="1.5" fill="none"></path><g id="SvgjsG2460"><text id="SvgjsText2461" font-family="微软雅黑" text-anchor="middle" font-size="15px" width="76px" fill="#323232" font-weight="700" align="middle" lineHeight="125%" anchor="middle" family="微软雅黑" size="15px" weight="700" font-style="" opacity="1" y="14.625" transform="rotate(0)"><tspan id="SvgjsTspan2462" dy="18.75" x="48"><tspan id="SvgjsTspan2463" style="">gateway_3</tspan></tspan></text></g></g><g id="SvgjsG2464"><path id="SvgjsPath2465" d="M861.4306353284167 484.68348525406475L861.4306353284167 394.43348525406475L913.8020638998452 394.43348525406475" stroke="#323232" stroke-width="1.5" fill="none" marker-end="url(#SvgjsMarker2466)"></path></g><g id="SvgjsG2468"><path id="SvgjsPath2469" d="M1060.5020638998462 481.68348525406475L1060.5020638998462 394.43348525406475L1015.2020638998463 394.43348525406475" stroke="#323232" stroke-width="1.5" fill="none" marker-end="url(#SvgjsMarker2470)"></path></g><g id="SvgjsG2472"><path id="SvgjsPath2473" d="M964.5020638998452 573.6834852540647L964.5020638998452 497.93348525406475L964.5020638998452 497.93348525406475L964.5020638998452 424.1334852540648" stroke="#323232" stroke-width="1.5" fill="none" marker-end="url(#SvgjsMarker2474)"></path></g></svg>